<?xml version="1.0" encoding="utf-8"?>
<!-- Generator: Adobe Illustrator 21.0.0, SVG Export Plug-In . SVG Version: 6.00 Build 0)  -->
<!DOCTYPE svg PUBLIC "-//W3C//DTD SVG 1.1//EN" "http://www.w3.org/Graphics/SVG/1.1/DTD/svg11.dtd">
<svg version="1.1" id="Layer_1" xmlns="http://www.w3.org/2000/svg" xmlns:xlink="http://www.w3.org/1999/xlink" x="0px" y="0px"
	 viewBox="0 0 312.7 291.6" style="enable-background:new 0 0 312.7 291.6;" xml:space="preserve">
<style type="text/css">
	.st0{fill:#8ED8F8;}
	.st1{fill:#00AEEF;}
	.st2{fill:#FFFFFF;}
</style>
<path class="st0" d="M237.8,23.6h-25.9c-5.7,0-10.4,4.6-10.4,10.4v56c0,5.7,4.6,10.4,10.4,10.4h25.9c5.7,0,10.4-4.6,10.4-10.4V34
	C248.2,28.3,243.5,23.6,237.8,23.6z"/>
<path class="st0" d="M260.1,101.7l-97.5-79.4c-1.8-1.5-4-2.2-6.2-2.2s-4.4,0.7-6.2,2.2l-97.5,79.4c-2.3,1.9-3.6,4.7-3.6,7.6v166
	c0,5.4,4.4,9.8,9.8,9.8h195c5.4,0,9.8-4.4,9.8-9.8v-166C263.7,106.3,262.3,103.5,260.1,101.7z"/>
<path class="st1" d="M301.9,121.9L162.9,8.9c-1.9-1.6-4.2-2.3-6.5-2.3s-4.6,0.8-6.5,2.3l-139,113.1c-3.4,2.8-4.7,7.4-3.2,11.5
	c1.5,4.1,5.4,6.9,9.8,6.9h35.5c2.4,0,4.7-0.8,6.5-2.3l96.9-78.9l96.9,78.9c1.8,1.5,4.2,2.3,6.5,2.3h35.5c4.4,0,8.3-2.8,9.8-6.9
	C306.6,129.3,305.3,124.7,301.9,121.9z"/>
<path class="st2" d="M186.2,170.3h-59.7c-4.8,0-8.8,3.9-8.8,8.8v84.2c0,4.8,3.9,8.8,8.8,8.8h59.7c4.8,0,8.8-3.9,8.8-8.8V179
	C195,174.2,191.1,170.3,186.2,170.3z"/>
<path class="st1" d="M174,211.7c-5.2,0-9.4,4.2-9.4,9.4c0,5.2,4.2,9.4,9.4,9.4c5.2,0,9.4-4.2,9.4-9.4
	C183.4,215.9,179.2,211.7,174,211.7z"/>
<path class="st1" d="M174,98.5h-35.3c-5.2,0-9.4,4.2-9.4,9.4v35.3c0,5.2,4.2,9.4,9.4,9.4H174c5.2,0,9.4-4.2,9.4-9.4v-35.3
	C183.4,102.7,179.2,98.5,174,98.5z"/>
</svg>
